<svg xmlns="http://www.w3.org/2000/svg" width="5.8in" height="528" viewBox="0 0 415.5 394.7"><circle cx="354" cy="61.4" r="58.9" fill="#653416"/><circle cx="349.4" cy="76.6" r="25.4" fill="#f5a9c8"/><circle cx="61.5" cy="61.4" r="58.9" fill="#653416"/><circle cx="66.1" cy="76.6" r="25.4" fill="#f5a9c8"/><circle cx="207.8" cy="206.6" r="185.7" fill="#653416"/><circle cx="207.8" cy="274.9" r="73" fill="#c65d28"/><path fill="#c65d28" d="M284.5 37a115.9 115.9 0 0 0 106.7 198.1A185.9 185.9 0 0 0 284.5 37zm-153.4 0A115.9 115.9 0 0 1 24.4 235.1 185.9 185.9 0 0 1 131.1 37z"/><circle cx="207.8" cy="216" r="22.8" fill="#f5a9c8"/><circle cx="282.6" cy="161.1" r="16.1" fill="#231f20"/><circle cx="132.5" cy="161.1" r="16.1" fill="#231f20"/><path fill="none" stroke="#231f20" stroke-linecap="round" stroke-miterlimit="10" stroke-width="5" d="M161.3 299.6s14.1 18.9 46.5 18.9 43.2-18.9 43.2-18.9"/></svg>